# xmcd CD database file
#
# Track frame offsets:
#	150
#	14242
#	23698
#	32236
#	37815
#	47107
#	59329
#	68156
#	78679
#	91571
#	102536
#	115078
#	128415
#	138851
#	151642
#	164803
#	177798
#	190511
#	202843
#	220361
#	241522
#
# Disc length: 3586 seconds
#
# Revision: 0
# Processed by: cddbd v1.5.2PL0 Copyright (c) Steve Scherf et al.
# Submitted via: CDex 1.51
#
DISCID=0c0e0015
DTITLE=Country Outlaws - Roots of the Country Outlaws
DYEAR=2011
DGENRE=Country
TTITLE0=Willie Nelson - Home Motel
TTITLE1=Willie Nelson - One Step Beyond
TTITLE2=Willie Nelson - Slow Down Old World
TTITLE3=Willie Nelson - Darkness On The Face Of The Earth
TTITLE4=Willie Nelson - Mean Old Greyhound Bus
TTITLE5=Waylon Jennings - Don't Think Twice, It's Alright
TTITLE6=Waylon Jennings - Jole Blon
TTITLE7=Waylon Jennings - Money (That's what I want)
TTITLE8=Jonny Cash - Folesom Prison Blues
TTITLE9=Jonny Cash - I Heard That Lonesome Whistle Blow
TTITLE10=Jonna Cash - I Walk The Line
TTITLE11=Lefty Frizzell - Travelin' Blues
TTITLE12=Freddy Fender - Before The Next Teardrop Falls
TTITLE13=Freddy Fender - Almost Persuaded
TTITLE14=Freddy Fender - Silver Wings
TTITLE15=Jonny Horton - North To Alaska
TTITLE16=The Flatlanders - Dallas
TTITLE17=The Flatlanders - Tonight I Think I'm Gonna Go Downtown
TTITLE18=The Sir Douglas Quintet - The Things I Used To Do
TTITLE19=The Sir Douglas Quintet - Papa Ain't Salty
TTITLE20=The Sir Douglas Quintet - Kansas City
EXTD=YEAR: 2011
EXTT0=
EXTT1=
EXTT2=
EXTT3=
EXTT4=
EXTT5=
EXTT6=
EXTT7=
EXTT8=
EXTT9=
EXTT10=
EXTT11=
EXTT12=
EXTT13=
EXTT14=
EXTT15=
EXTT16=
EXTT17=
EXTT18=
EXTT19=
EXTT20=
PLAYORDER=
